<svg width="142" height="42" viewBox="0 0 142 42" fill="none" xmlns="http://www.w3.org/2000/svg">
<g clip-path="url(#clip0_7286_6971)">
<path d="M63.4509 9.32874C66.9825 9.32874 69.8509 12.1971 69.8509 15.7287C69.8509 19.2604 66.9825 22.1287 63.4509 22.1287C59.9193 22.1287 57.0509 19.2604 57.0509 15.7287C57.0509 12.1971 59.9193 9.32874 63.4509 9.32874ZM63.4509 7.00146C58.6335 7.00146 54.7236 10.9113 54.7236 15.7287C54.7236 20.5462 58.6335 24.456 63.4509 24.456C68.2684 24.456 72.1782 20.5462 72.1782 15.7287C72.1782 10.9113 68.2684 7.00146 63.4509 7.00146Z" fill="white"/>
<path d="M126.875 9.32874C127.515 9.32874 128.038 8.8051 128.038 8.1651V7.00146H116.402V24.456H126.875C127.515 24.456 128.038 23.9324 128.038 23.2924V22.1287H118.729V16.8924H126.875V14.5651H118.729V9.32874H126.875Z" fill="white"/>
<path d="M95.4506 7.00146H88.4688V9.32874H93.1233V24.456H94.2869C94.9269 24.456 95.4506 23.9324 95.4506 23.2924V9.32874H98.9415C99.5815 9.32874 100.105 8.8051 100.105 8.1651V7.00146H95.4506Z" fill="white"/>
<path d="M46.5779 7.00146H40.7598V24.456H41.9234C42.5634 24.456 43.087 23.9324 43.087 23.2924V18.6378H46.5779C49.7896 18.6378 52.3961 16.0313 52.3961 12.8196C52.3961 9.60801 49.7896 7.00146 46.5779 7.00146ZM46.5779 16.3106H43.087V9.32874H46.5779C48.5038 9.32874 50.0689 10.8938 50.0689 12.8196C50.0689 14.7455 48.5038 16.3106 46.5779 16.3106Z" fill="white"/>
<path d="M86.1417 12.8196C86.1417 9.60801 83.5352 7.00146 80.3236 7.00146H74.5054V24.456H75.669C76.309 24.456 76.8326 23.9324 76.8326 23.2924V18.6378H80.0966L83.4537 24.456H86.1417L82.5286 18.2015C84.6465 17.3346 86.1417 15.2516 86.1417 12.8196ZM76.8326 9.32874H80.3236C82.2494 9.32874 83.8145 10.8938 83.8145 12.8196C83.8145 14.7455 82.2494 16.3106 80.3236 16.3106H76.8326V9.32874Z" fill="white"/>
<path d="M111.387 24.456H114.075L108.152 14.2044L112.312 7.00146H109.624L104.76 15.4204V7.00146H102.433V24.456H103.596C104.236 24.456 104.76 23.9324 104.76 23.2924V20.0749L106.808 16.5258L111.387 24.4502V24.456Z" fill="white"/>
<path d="M142.002 7.00146H139.314L136.184 12.424L133.054 7.00146H130.366L135.02 15.0655V24.456H136.184C136.824 24.456 137.348 23.9324 137.348 23.2924V15.0655L142.002 7.00146Z" fill="white"/>
<path d="M13.6668 5.82535C9.38466 7.70463 6.69084 12.301 8.25593 16.8624C9.20429 19.6203 11.1127 21.5926 13.9519 22.5992C18.909 24.3563 24.0756 20.493 23.4996 15.4661C23.2494 13.3308 22.1672 11.7075 19.9679 11.0268C18.333 10.5264 16.7621 10.7592 15.4763 11.9519C14.3941 12.9584 13.9752 14.2035 14.4116 15.6523C14.6501 16.4494 15.2261 16.9439 16.0116 17.1766C16.6981 17.3861 17.2334 17.0835 17.6465 16.5134C17.565 16.3737 17.4894 16.2224 17.3905 16.0944C16.8552 15.4021 17.2857 14.3955 17.7512 13.9766C18.3796 13.4064 19.3977 13.3541 20.0727 13.8254C21.1548 14.5875 21.6552 16.6181 21.0617 17.8981C20.0727 20.0334 17.5301 21.2726 15.2028 20.6675C11.5257 19.7134 9.71047 16.077 10.8974 12.5686C12.4741 7.90245 17.7803 5.86026 22.301 8.10026C25.9548 9.90972 27.3105 13.0632 27.1708 16.8275C26.9323 23.0181 20.6894 27.6086 14.4232 26.4159C8.34902 25.2581 3.83411 19.4399 4.15993 13.9417C4.27629 11.9112 4.73593 10.0086 5.77156 8.26317C8.46538 3.71917 12.6777 1.5839 17.9432 1.23481C19.3279 1.14172 20.7301 1.21735 22.0508 1.21735C21.981 1.18826 21.8123 1.10099 21.6436 1.04281C19.0661 0.0828089 16.4072 -0.225555 13.6843 0.164263C11.997 0.373718 10.4319 0.833354 9.01811 1.47917C8.99484 1.47917 8.95993 1.49081 8.92502 1.50826C8.29084 1.78172 8.18029 1.15917 7.95338 0.967173C7.73229 0.786809 7.76138 1.01372 7.76138 1.01372C7.95338 1.92717 7.47047 2.29372 7.40647 2.34026C7.00502 2.59045 6.62102 2.85808 6.24866 3.14317C6.23702 3.14317 6.22538 3.14317 6.21956 3.15481C5.34102 3.55626 4.97447 2.87554 4.57302 2.6719C4.14247 2.45663 4.30538 2.81154 4.30538 2.81154C4.83484 3.86463 4.3752 4.76645 4.28793 4.9119C3.91556 5.31335 3.56647 5.73808 3.23484 6.18026C3.19993 6.20354 3.16502 6.22099 3.12429 6.2559C2.2632 7.03554 1.58829 6.41881 1.05884 6.30245C0.471201 6.17445 0.802838 6.55845 0.802838 6.55845C1.89084 7.67554 1.54756 9.01372 1.54756 9.01372C0.157019 12.0392 -0.343344 15.5359 0.238474 19.0443C2.15266 30.5817 16.3432 36.0334 25.6407 28.5977C28.6603 26.1832 30.7548 21.5344 30.9759 17.6886C31.133 14.9541 30.2894 12.4755 28.7301 10.2355C25.4254 5.47045 18.8217 3.56208 13.661 5.82535H13.6668Z" fill="#5B8EF4"/>
<path d="M137.752 36.7676V41.7539H136.34V35.4141H137.67L137.752 36.7676ZM137.5 38.3496L137.043 38.3438C137.047 37.8945 137.109 37.4824 137.23 37.1074C137.355 36.7324 137.527 36.4102 137.746 36.1406C137.969 35.8711 138.234 35.6641 138.543 35.5195C138.852 35.3711 139.195 35.2969 139.574 35.2969C139.879 35.2969 140.154 35.3398 140.4 35.4258C140.65 35.5078 140.863 35.6426 141.039 35.8301C141.219 36.0176 141.355 36.2617 141.449 36.5625C141.543 36.8594 141.59 37.2246 141.59 37.6582V41.7539H140.172V37.6523C140.172 37.3477 140.127 37.1074 140.037 36.9316C139.951 36.752 139.824 36.625 139.656 36.5508C139.492 36.4727 139.287 36.4336 139.041 36.4336C138.799 36.4336 138.582 36.4844 138.391 36.5859C138.199 36.6875 138.037 36.8262 137.904 37.002C137.775 37.1777 137.676 37.3809 137.605 37.6113C137.535 37.8418 137.5 38.0879 137.5 38.3496Z" fill="white"/>
<path d="M129.273 38.6543V38.5195C129.273 38.0625 129.34 37.6387 129.473 37.248C129.605 36.8535 129.797 36.5117 130.047 36.2227C130.301 35.9297 130.609 35.7031 130.973 35.543C131.34 35.3789 131.754 35.2969 132.215 35.2969C132.68 35.2969 133.094 35.3789 133.457 35.543C133.824 35.7031 134.135 35.9297 134.389 36.2227C134.643 36.5117 134.836 36.8535 134.969 37.248C135.102 37.6387 135.168 38.0625 135.168 38.5195V38.6543C135.168 39.1113 135.102 39.5352 134.969 39.9258C134.836 40.3164 134.643 40.6582 134.389 40.9512C134.135 41.2402 133.826 41.4668 133.463 41.6309C133.1 41.791 132.688 41.8711 132.227 41.8711C131.762 41.8711 131.346 41.791 130.979 41.6309C130.615 41.4668 130.307 41.2402 130.053 40.9512C129.799 40.6582 129.605 40.3164 129.473 39.9258C129.34 39.5352 129.273 39.1113 129.273 38.6543ZM130.686 38.5195V38.6543C130.686 38.9395 130.715 39.209 130.773 39.4629C130.832 39.7168 130.924 39.9395 131.049 40.1309C131.174 40.3223 131.334 40.4727 131.529 40.582C131.725 40.6914 131.957 40.7461 132.227 40.7461C132.488 40.7461 132.715 40.6914 132.906 40.582C133.102 40.4727 133.262 40.3223 133.387 40.1309C133.512 39.9395 133.604 39.7168 133.662 39.4629C133.725 39.209 133.756 38.9395 133.756 38.6543V38.5195C133.756 38.2383 133.725 37.9727 133.662 37.7227C133.604 37.4688 133.51 37.2441 133.381 37.0488C133.256 36.8535 133.096 36.7012 132.9 36.5918C132.709 36.4785 132.48 36.4219 132.215 36.4219C131.949 36.4219 131.719 36.4785 131.523 36.5918C131.332 36.7012 131.174 36.8535 131.049 37.0488C130.924 37.2441 130.832 37.4688 130.773 37.7227C130.715 37.9727 130.686 38.2383 130.686 38.5195Z" fill="white"/>
<path d="M127.996 35.4141V41.7539H126.578V35.4141H127.996ZM126.484 33.75C126.484 33.5352 126.555 33.3574 126.695 33.2168C126.84 33.0723 127.039 33 127.293 33C127.543 33 127.74 33.0723 127.885 33.2168C128.029 33.3574 128.102 33.5352 128.102 33.75C128.102 33.9609 128.029 34.1367 127.885 34.2773C127.74 34.418 127.543 34.4883 127.293 34.4883C127.039 34.4883 126.84 34.418 126.695 34.2773C126.555 34.1367 126.484 33.9609 126.484 33.75Z" fill="white"/>
<path d="M125.395 35.4141V36.4453H121.82V35.4141H125.395ZM122.852 33.8613H124.264V40.002C124.264 40.1973 124.291 40.3477 124.346 40.4531C124.404 40.5547 124.484 40.623 124.586 40.6582C124.688 40.6934 124.807 40.7109 124.943 40.7109C125.041 40.7109 125.135 40.7051 125.225 40.6934C125.314 40.6816 125.387 40.6699 125.441 40.6582L125.447 41.7363C125.33 41.7715 125.193 41.8027 125.037 41.8301C124.885 41.8574 124.709 41.8711 124.51 41.8711C124.186 41.8711 123.898 41.8145 123.648 41.7012C123.398 41.584 123.203 41.3945 123.062 41.1328C122.922 40.8711 122.852 40.5234 122.852 40.0898V33.8613Z" fill="white"/>
<path d="M119.594 40.4824V37.459C119.594 37.2324 119.553 37.0371 119.471 36.873C119.389 36.709 119.264 36.582 119.096 36.4922C118.932 36.4023 118.725 36.3574 118.475 36.3574C118.244 36.3574 118.045 36.3965 117.877 36.4746C117.709 36.5527 117.578 36.6582 117.484 36.791C117.391 36.9238 117.344 37.0742 117.344 37.2422H115.938C115.938 36.9922 115.998 36.75 116.119 36.5156C116.24 36.2812 116.416 36.0723 116.646 35.8887C116.877 35.7051 117.152 35.5605 117.473 35.4551C117.793 35.3496 118.152 35.2969 118.551 35.2969C119.027 35.2969 119.449 35.377 119.816 35.5371C120.188 35.6973 120.479 35.9395 120.689 36.2637C120.904 36.584 121.012 36.9863 121.012 37.4707V40.2891C121.012 40.5781 121.031 40.8379 121.07 41.0684C121.113 41.2949 121.174 41.4922 121.252 41.6602V41.7539H119.805C119.738 41.6016 119.686 41.4082 119.646 41.1738C119.611 40.9355 119.594 40.7051 119.594 40.4824ZM119.799 37.8984L119.811 38.7715H118.797C118.535 38.7715 118.305 38.7969 118.105 38.8477C117.906 38.8945 117.74 38.9648 117.607 39.0586C117.475 39.1523 117.375 39.2656 117.309 39.3984C117.242 39.5312 117.209 39.6816 117.209 39.8496C117.209 40.0176 117.248 40.1719 117.326 40.3125C117.404 40.4492 117.518 40.5566 117.666 40.6348C117.818 40.7129 118.002 40.752 118.217 40.752C118.506 40.752 118.758 40.6934 118.973 40.5762C119.191 40.4551 119.363 40.3086 119.488 40.1367C119.613 39.9609 119.68 39.7949 119.688 39.6387L120.145 40.2656C120.098 40.4258 120.018 40.5977 119.904 40.7812C119.791 40.9648 119.643 41.1406 119.459 41.3086C119.279 41.4727 119.062 41.6074 118.809 41.7129C118.559 41.8184 118.27 41.8711 117.941 41.8711C117.527 41.8711 117.158 41.7891 116.834 41.625C116.51 41.457 116.256 41.2324 116.072 40.9512C115.889 40.666 115.797 40.3438 115.797 39.9844C115.797 39.6484 115.859 39.3516 115.984 39.0938C116.113 38.832 116.301 38.6133 116.547 38.4375C116.797 38.2617 117.102 38.1289 117.461 38.0391C117.82 37.9453 118.23 37.8984 118.691 37.8984H119.799Z" fill="white"/>
<path d="M114.93 35.4141V36.4453H111.355V35.4141H114.93ZM112.387 33.8613H113.799V40.002C113.799 40.1973 113.826 40.3477 113.881 40.4531C113.939 40.5547 114.02 40.623 114.121 40.6582C114.223 40.6934 114.342 40.7109 114.479 40.7109C114.576 40.7109 114.67 40.7051 114.76 40.6934C114.85 40.6816 114.922 40.6699 114.977 40.6582L114.982 41.7363C114.865 41.7715 114.729 41.8027 114.572 41.8301C114.42 41.8574 114.244 41.8711 114.045 41.8711C113.721 41.8711 113.434 41.8145 113.184 41.7012C112.934 41.584 112.738 41.3945 112.598 41.1328C112.457 40.8711 112.387 40.5234 112.387 40.0898V33.8613Z" fill="white"/>
<path d="M106.744 36.7676V41.7539H105.332V35.4141H106.662L106.744 36.7676ZM106.492 38.3496L106.035 38.3438C106.039 37.8945 106.102 37.4824 106.223 37.1074C106.348 36.7324 106.52 36.4102 106.738 36.1406C106.961 35.8711 107.227 35.6641 107.535 35.5195C107.844 35.3711 108.188 35.2969 108.566 35.2969C108.871 35.2969 109.146 35.3398 109.393 35.4258C109.643 35.5078 109.855 35.6426 110.031 35.8301C110.211 36.0176 110.348 36.2617 110.441 36.5625C110.535 36.8594 110.582 37.2246 110.582 37.6582V41.7539H109.164V37.6523C109.164 37.3477 109.119 37.1074 109.029 36.9316C108.943 36.752 108.816 36.625 108.648 36.5508C108.484 36.4727 108.279 36.4336 108.033 36.4336C107.791 36.4336 107.574 36.4844 107.383 36.5859C107.191 36.6875 107.029 36.8262 106.896 37.002C106.768 37.1777 106.668 37.3809 106.598 37.6113C106.527 37.8418 106.492 38.0879 106.492 38.3496Z" fill="white"/>
<path d="M101.705 41.8711C101.236 41.8711 100.812 41.7949 100.434 41.6426C100.059 41.4863 99.7383 41.2695 99.4727 40.9922C99.2109 40.7148 99.0098 40.3887 98.8691 40.0137C98.7285 39.6387 98.6582 39.2344 98.6582 38.8008V38.5664C98.6582 38.0703 98.7305 37.6211 98.875 37.2188C99.0195 36.8164 99.2207 36.4727 99.4785 36.1875C99.7363 35.8984 100.041 35.6777 100.393 35.5254C100.744 35.373 101.125 35.2969 101.535 35.2969C101.988 35.2969 102.385 35.373 102.725 35.5254C103.064 35.6777 103.346 35.8926 103.568 36.1699C103.795 36.4434 103.963 36.7695 104.072 37.1484C104.186 37.5273 104.242 37.9453 104.242 38.4023V39.0059H99.3438V37.9922H102.848V37.8809C102.84 37.627 102.789 37.3887 102.695 37.166C102.605 36.9434 102.467 36.7637 102.279 36.627C102.092 36.4902 101.842 36.4219 101.529 36.4219C101.295 36.4219 101.086 36.4727 100.902 36.5742C100.723 36.6719 100.572 36.8145 100.451 37.002C100.33 37.1895 100.236 37.416 100.17 37.6816C100.107 37.9434 100.076 38.2383 100.076 38.5664V38.8008C100.076 39.0781 100.113 39.3359 100.188 39.5742C100.266 39.8086 100.379 40.0137 100.527 40.1895C100.676 40.3652 100.855 40.5039 101.066 40.6055C101.277 40.7031 101.518 40.752 101.787 40.752C102.127 40.752 102.43 40.6836 102.695 40.5469C102.961 40.4102 103.191 40.2168 103.387 39.9668L104.131 40.6875C103.994 40.8867 103.816 41.0781 103.598 41.2617C103.379 41.4414 103.111 41.5879 102.795 41.7012C102.482 41.8145 102.119 41.8711 101.705 41.8711Z" fill="white"/>
<path d="M89.8691 36.7031V41.7539H88.457V35.4141H89.7871L89.8691 36.7031ZM89.6406 38.3496L89.1602 38.3438C89.1602 37.9062 89.2148 37.502 89.3242 37.1309C89.4336 36.7598 89.5938 36.4375 89.8047 36.1641C90.0156 35.8867 90.2773 35.6738 90.5898 35.5254C90.9062 35.373 91.2715 35.2969 91.6855 35.2969C91.9746 35.2969 92.2383 35.3398 92.4766 35.4258C92.7188 35.5078 92.9277 35.6387 93.1035 35.8184C93.2832 35.998 93.4199 36.2285 93.5137 36.5098C93.6113 36.791 93.6602 37.1309 93.6602 37.5293V41.7539H92.248V37.6523C92.248 37.3438 92.2012 37.1016 92.1074 36.9258C92.0176 36.75 91.8867 36.625 91.7148 36.5508C91.5469 36.4727 91.3457 36.4336 91.1113 36.4336C90.8457 36.4336 90.6191 36.4844 90.4316 36.5859C90.248 36.6875 90.0977 36.8262 89.9805 37.002C89.8633 37.1777 89.7773 37.3809 89.7227 37.6113C89.668 37.8418 89.6406 38.0879 89.6406 38.3496ZM93.5723 37.9746L92.9102 38.1211C92.9102 37.7383 92.9629 37.377 93.0684 37.0371C93.1777 36.6934 93.3359 36.3926 93.543 36.1348C93.7539 35.873 94.0137 35.668 94.3223 35.5195C94.6309 35.3711 94.9844 35.2969 95.3828 35.2969C95.707 35.2969 95.9961 35.3418 96.25 35.4316C96.5078 35.5176 96.7266 35.6543 96.9062 35.8418C97.0859 36.0293 97.2227 36.2734 97.3164 36.5742C97.4102 36.8711 97.457 37.2305 97.457 37.6523V41.7539H96.0391V37.6465C96.0391 37.3262 95.9922 37.0781 95.8984 36.9023C95.8086 36.7266 95.6797 36.6055 95.5117 36.5391C95.3438 36.4688 95.1426 36.4336 94.9082 36.4336C94.6895 36.4336 94.4961 36.4746 94.3281 36.5566C94.1641 36.6348 94.0254 36.7461 93.9121 36.8906C93.7988 37.0312 93.7129 37.1934 93.6543 37.377C93.5996 37.5605 93.5723 37.7598 93.5723 37.9746Z" fill="white"/>
<path d="M85.5918 40.2598V35.4141H87.0098V41.7539H85.6738L85.5918 40.2598ZM85.791 38.9414L86.2656 38.9297C86.2656 39.3555 86.2188 39.748 86.125 40.1074C86.0312 40.4629 85.8867 40.7734 85.6914 41.0391C85.4961 41.3008 85.2461 41.5059 84.9414 41.6543C84.6367 41.7988 84.2715 41.8711 83.8457 41.8711C83.5371 41.8711 83.2539 41.8262 82.9961 41.7363C82.7383 41.6465 82.5156 41.5078 82.3281 41.3203C82.1445 41.1328 82.002 40.8887 81.9004 40.5879C81.7988 40.2871 81.748 39.9277 81.748 39.5098V35.4141H83.1602V39.5215C83.1602 39.752 83.1875 39.9453 83.2422 40.1016C83.2969 40.2539 83.3711 40.377 83.4648 40.4707C83.5586 40.5645 83.668 40.6309 83.793 40.6699C83.918 40.709 84.0508 40.7285 84.1914 40.7285C84.5938 40.7285 84.9102 40.6504 85.1406 40.4941C85.375 40.334 85.541 40.1191 85.6387 39.8496C85.7402 39.5801 85.791 39.2773 85.791 38.9414Z" fill="white"/>
<path d="M78.0977 40.7461C78.3281 40.7461 78.5352 40.7012 78.7188 40.6113C78.9062 40.5176 79.0566 40.3887 79.1699 40.2246C79.2871 40.0605 79.3516 39.8711 79.3633 39.6562H80.6934C80.6855 40.0664 80.5645 40.4395 80.3301 40.7754C80.0957 41.1113 79.7852 41.3789 79.3984 41.5781C79.0117 41.7734 78.584 41.8711 78.1152 41.8711C77.6309 41.8711 77.209 41.7891 76.8496 41.625C76.4902 41.457 76.1914 41.2266 75.9531 40.9336C75.7148 40.6406 75.5352 40.3027 75.4141 39.9199C75.2969 39.5371 75.2383 39.127 75.2383 38.6895V38.4844C75.2383 38.0469 75.2969 37.6367 75.4141 37.2539C75.5352 36.8672 75.7148 36.5273 75.9531 36.2344C76.1914 35.9414 76.4902 35.7129 76.8496 35.5488C77.209 35.3809 77.6289 35.2969 78.1094 35.2969C78.6172 35.2969 79.0625 35.3984 79.4453 35.6016C79.8281 35.8008 80.1289 36.0801 80.3477 36.4395C80.5703 36.7949 80.6855 37.209 80.6934 37.6816H79.3633C79.3516 37.4473 79.293 37.2363 79.1875 37.0488C79.0859 36.8574 78.9414 36.7051 78.7539 36.5918C78.5703 36.4785 78.3496 36.4219 78.0918 36.4219C77.8066 36.4219 77.5703 36.4805 77.3828 36.5977C77.1953 36.7109 77.0488 36.8672 76.9434 37.0664C76.8379 37.2617 76.7617 37.4824 76.7148 37.7285C76.6719 37.9707 76.6504 38.2227 76.6504 38.4844V38.6895C76.6504 38.9512 76.6719 39.2051 76.7148 39.4512C76.7578 39.6973 76.832 39.918 76.9375 40.1133C77.0469 40.3047 77.1953 40.459 77.3828 40.5762C77.5703 40.6895 77.8086 40.7461 78.0977 40.7461Z" fill="white"/>
<path d="M68.4297 38.6543V38.5195C68.4297 38.0625 68.4961 37.6387 68.6289 37.248C68.7617 36.8535 68.9531 36.5117 69.2031 36.2227C69.457 35.9297 69.7656 35.7031 70.1289 35.543C70.4961 35.3789 70.9102 35.2969 71.3711 35.2969C71.8359 35.2969 72.25 35.3789 72.6133 35.543C72.9805 35.7031 73.291 35.9297 73.5449 36.2227C73.7988 36.5117 73.9922 36.8535 74.125 37.248C74.2578 37.6387 74.3242 38.0625 74.3242 38.5195V38.6543C74.3242 39.1113 74.2578 39.5352 74.125 39.9258C73.9922 40.3164 73.7988 40.6582 73.5449 40.9512C73.291 41.2402 72.9824 41.4668 72.6191 41.6309C72.2559 41.791 71.8438 41.8711 71.3828 41.8711C70.918 41.8711 70.502 41.791 70.1348 41.6309C69.7715 41.4668 69.4629 41.2402 69.209 40.9512C68.9551 40.6582 68.7617 40.3164 68.6289 39.9258C68.4961 39.5352 68.4297 39.1113 68.4297 38.6543ZM69.8418 38.5195V38.6543C69.8418 38.9395 69.8711 39.209 69.9297 39.4629C69.9883 39.7168 70.0801 39.9395 70.2051 40.1309C70.3301 40.3223 70.4902 40.4727 70.6855 40.582C70.8809 40.6914 71.1133 40.7461 71.3828 40.7461C71.6445 40.7461 71.8711 40.6914 72.0625 40.582C72.2578 40.4727 72.418 40.3223 72.543 40.1309C72.668 39.9395 72.7598 39.7168 72.8184 39.4629C72.8809 39.209 72.9121 38.9395 72.9121 38.6543V38.5195C72.9121 38.2383 72.8809 37.9727 72.8184 37.7227C72.7598 37.4688 72.666 37.2441 72.5371 37.0488C72.4121 36.8535 72.252 36.7012 72.0566 36.5918C71.8652 36.4785 71.6367 36.4219 71.3711 36.4219C71.1055 36.4219 70.875 36.4785 70.6797 36.5918C70.4883 36.7012 70.3301 36.8535 70.2051 37.0488C70.0801 37.2441 69.9883 37.4688 69.9297 37.7227C69.8711 37.9727 69.8418 38.2383 69.8418 38.5195Z" fill="white"/>
<path d="M63.4785 41.7539H61.6562L61.668 40.5879H63.4785C64.0059 40.5879 64.4473 40.4727 64.8027 40.2422C65.1621 40.0117 65.4316 39.6816 65.6113 39.252C65.7949 38.8223 65.8867 38.3105 65.8867 37.7168V37.2539C65.8867 36.793 65.834 36.3848 65.7285 36.0293C65.627 35.6738 65.4746 35.375 65.2715 35.1328C65.0723 34.8906 64.8262 34.707 64.5332 34.582C64.2441 34.457 63.9102 34.3945 63.5312 34.3945H61.6211V33.2227H63.5312C64.0977 33.2227 64.6152 33.3184 65.084 33.5098C65.5527 33.6973 65.957 33.9688 66.2969 34.3242C66.6406 34.6797 66.9043 35.1055 67.0879 35.6016C67.2715 36.0977 67.3633 36.6523 67.3633 37.2656V37.7168C67.3633 38.3301 67.2715 38.8848 67.0879 39.3809C66.9043 39.877 66.6406 40.3027 66.2969 40.6582C65.9531 41.0098 65.543 41.2812 65.0664 41.4727C64.5938 41.6602 64.0645 41.7539 63.4785 41.7539ZM62.4707 33.2227V41.7539H61V33.2227H62.4707Z" fill="white"/>
</g>
<defs>
<clipPath id="clip0_7286_6971">
<rect width="142.002" height="42" fill="white"/>
</clipPath>
</defs>
</svg>
